# xmcd
#
# Track frame offsets: 
#        150
#        18055
#        36657
#        56903
#        72659
#        92947
#        110134
#        128973
#        154361
#        173467
#        191415
#
# Disc length: 2869 seconds
#
# Revision: 0
# Processed by: cddbd v1.5.2PL0 Copyright (c) Steve Scherf et al.
# Submitted via: ExactAudioCopy v0.99pb4
#
DISCID=a00b330b
DTITLE=Ithalia Johnson - Welcome to Our Lives
DYEAR=2002
DGENRE=Blues
TTITLE0=If You Love Me, Love Yourself
TTITLE1=Missing
TTITLE2=Understand
TTITLE3=Welcome to Our Lives
TTITLE4=The Long Road
TTITLE5=At Least
TTITLE6=Can I Light The Way
TTITLE7=Hey Boy
TTITLE8=Heaven's On The Way
TTITLE9=Don't Go
TTITLE10=Figure Out
EXTD=
EXTT0=
EXTT1=
EXTT2=
EXTT3=
EXTT4=
EXTT5=
EXTT6=
EXTT7=
EXTT8=
EXTT9=
EXTT10=
PLAYORDER=
